<svg width="48" height="42" viewBox="0 0 48 42" fill="none" xmlns="http://www.w3.org/2000/svg">
<rect x="2.5" y="2.5" width="43" height="37" rx="9.5" stroke="white" stroke-width="5"/>
<path d="M5 12.5H11" stroke="white" stroke-width="5"/>
<path d="M39 12.5H45" stroke="white" stroke-width="5"/>
<line x1="34" y1="17.5" x2="39" y2="17.5" stroke="white" stroke-width="5"/>
<line x1="34" y1="7.5" x2="39" y2="7.5" stroke="white" stroke-width="5"/>
<line x1="28" y1="12.5" x2="34" y2="12.5" stroke="white" stroke-width="5"/>
<path d="M22 17.5H28" stroke="white" stroke-width="5"/>
<line x1="22" y1="7.5" x2="28" y2="7.5" stroke="white" stroke-width="5"/>
<line x1="11" y1="7.5" x2="17" y2="7.5" stroke="white" stroke-width="5"/>
<line x1="17" y1="12.5" x2="22" y2="12.5" stroke="white" stroke-width="5"/>
<line x1="11" y1="17.5" x2="17" y2="17.5" stroke="white" stroke-width="5"/>
<line x1="11" y1="28.5" x2="17" y2="28.5" stroke="white" stroke-width="5"/>
<line x1="5" y1="23.5" x2="11" y2="23.5" stroke="white" stroke-width="5"/>
<line x1="5" y1="33.5" x2="11" y2="33.5" stroke="white" stroke-width="5"/>
<line x1="39" y1="33.5" x2="45" y2="33.5" stroke="white" stroke-width="5"/>
<line x1="39" y1="23.5" x2="45" y2="23.5" stroke="white" stroke-width="5"/>
<line x1="34" y1="28.5" x2="39" y2="28.5" stroke="white" stroke-width="5"/>
<line x1="28" y1="33.5" x2="34" y2="33.5" stroke="white" stroke-width="5"/>
<line x1="28" y1="23.5" x2="34" y2="23.5" stroke="white" stroke-width="5"/>
<line x1="17" y1="23.5" x2="22" y2="23.5" stroke="white" stroke-width="5"/>
<line x1="22" y1="28.5" x2="28" y2="28.5" stroke="white" stroke-width="5"/>
<line x1="17" y1="33.5" x2="22" y2="33.5" stroke="white" stroke-width="5"/>
</svg>
